# AST/ASF file generated using VICON BodyLanguage
# -----------------------------------------------
:version 1.10
:name VICON
:units
  mass 1.0
  length 0.45
  angle deg
:documentation
   .ast/.asf automatically generated from VICON data using
   VICON BodyBuilder and BodyLanguage model FoxedUp or BRILLIANT.MOD
:root
   order TX TY TZ RX RY RZ
   axis XYZ
   position 0 0 0  
   orientation 0 0 0 
:bonedata
  begin
     id 1 
     name lhipjoint
     direction 0.523584 -0.783993 0.333487 
     length 2.44404 
     axis 0 0 0  XYZ
  end
  begin
     id 2 
     name lfemur
     direction 0.34202 -0.939693 0  
     length 7.29523  
     axis 0 0 20  XYZ
    dof rx ry rz
    limits (-160.0 20.0)
           (-70.0 70.0)
           (-60.0 70.0)
  end
  begin
     id 3 
     name ltibia
     direction 0.34215 -0.939645 0   
     length 7.81194   
     axis 0 0 20   XYZ
    dof rx
    limits (-10.0 170.0)
  end
  begin
     id 4 
     name lfoot
     direction 0.0941847 -0.25877 0.961336   
     length 2.41437   
     axis -90 7.62852e-016 20   XYZ
    dof rx rz
    limits (-45.0 90.0)
           (-70.0 20.0)
  end
  begin
     id 5 
     name ltoes
     direction 1.53526e-011 -4.21768e-011 1   
     length 1.2048   
     axis -90 7.62852e-016 20   XYZ
    dof rx
    limits (-90.0 20.0)
  end
  begin
     id 6 
     name rhipjoint
     direction -0.46599 -0.814191 0.346332   
     length 2.35339  
     axis 0 0 0  XYZ 
  end
  begin
     id 7 
     name rfemur
     direction -0.34202 -0.939693 0   
     length 7.34966   
     axis 0 0 -20   XYZ
    dof rx ry rz
    limits (-160.0 20.0)
           (-70.0 70.0)
           (-70.0 60.0)
  end
  begin
     id 8 
     name rtibia
     direction -0.34202 -0.939693 0   
     length 7.89934   
     axis 0 0 -20   XYZ
    dof rx
    limits (-10.0 170.0)
 end
 begin
     id 9 
     name rfoot
     direction -0.0975468 -0.268008 0.958466   
     length 2.27725  
     axis -90 -7.62852e-016 -20   XYZ
    dof rx rz
    limits (-45.0 90.0)
           (-20.0 70.0)
  end
  begin
     id 10 
     name rtoes
     direction -1.53563e-011 -4.22022e-011 1   
     length 1.13683   
     axis -90 -7.62852e-016 -20   XYZ
    dof rx
    limits (-90.0 20.0)
  end
  begin
     id 11 
     name lowerback
     direction -0.00456414 0.999242 -0.0386661   
     length 2.16968   
     axis 0 0 0   XYZ
    dof rx ry rz
    limits (-20.0 45.0)
           (-30.0 30.0)
           (-30.0 30.0)
  end
  begin
     id 12 
     name upperback
     direction 0.0297078 0.998988 0.0337799   
     length 2.15674   
     axis 0 0 0   XYZ
    dof rx ry rz
    limits (-20.0 45.0)
           (-30.0 30.0)
           (-30.0 30.0)
  end
  begin
     id 13 
     name thorax
     direction 0.0309305 0.998202 0.0513506   
     length 2.16319   
     axis 0 0 0   XYZ
    dof rx ry rz
    limits (-20.0 45.0)
           (-30.0 30.0)
           (-30.0 30.0)
  end
  begin
     id 14 
     name lowerneck
     direction -0.103039 0.983474 0.148872   
     length 1.64318   
     axis 0 0 0   XYZ
    dof rx ry rz
    limits (-20.0 45.0)
           (-30.0 30.0)
           (-30.0 30.0)
  end
  begin
     id 15 
     name upperneck
     direction 0.128124 0.971079 -0.201469   
     length 1.68242   
     axis 0 0 0   XYZ
    dof rx ry rz
    limits (-20.0 45.0)
           (-30.0 30.0)
           (-30.0 30.0)
  end
  begin
     id 16
     name head
     direction 0.0496365 0.994919 -0.0875941  
     length 1.70108  
     axis 0 0 0   XYZ
    dof rx ry rz
    limits (-20.0 45.0)
           (-30.0 30.0)
           (-30.0 30.0)
  end
  begin
     id 17 
     name lclavicle
     direction 0.887148 0.430222 -0.166967  
     length 3.25763  
     axis 0 0 0   XYZ
    dof ry rz
    limits (-20.0 10.0)
           (0.0 20.0)
  end
  begin
     id 18 
     name lhumerus
     direction 1 -4.48962e-011 1.92156e-027   
     length 5.10755   
     axis 180 -30 -90   XYZ
    dof rx ry rz
    limits (-60.0 90.0)
           (-90.0 90.0)
           (-90.0 90.0)
  end
  begin
     id 19
     name lradius
     direction 1 -4.48958e-011 7.10963e-027   
     length 3.36253   
     axis 180 -30 -90   XYZ
    dof rx
    limits (-10.0 170.0)
  end
  begin
     id 20
     name lwrist
     direction 1 -4.48946e-011 1.82396e-026   
     length 1.68127   
     axis -1.15222e-014 90 90   XYZ
    dof ry
    limits (-180.0 0.0)
 end
  begin
     id 21 
     name lhand
     direction 1 -4.48919e-011 3.64759e-026   
     length 0.619088   
     axis -2.32787e-014 90 90   XYZ
    dof rx rz
    limits (-90.0 90.0)
           (-45.0 45.0)
  end
  begin
     id 22 
     name lfingers
     direction 1 -4.49012e-011 7.29744e-026   
     length 0.499125   
     axis -4.6558e-014 90 90   XYZ
    dof rx
    limits (0.0 90.0)
  end
  begin
     id 23
     name lthumb
     direction 0.707107 -6.35028e-011 0.707107   
     length 0.716646   
     axis -90 45 3.78391e-014   XYZ
    dof rx rz
    limits (-45.0 45.0)
           (-45.0 45.0)
  end
  begin
     id 24 
     name rclavicle
     direction -0.82886 0.533198 -0.169384   
     length 3.20647  
     axis 0 0 0   XYZ 
    dof ry rz
    limits (-10.0 20.0)
           (-20.0 0.0)
  end
  begin
     id 25 
     name rhumerus
     direction -1 -4.48973e-011 3.06863e-027  
     length 5.27387   
     axis 180 30 90   XYZ
    dof rx ry rz
    limits (-90.0 60.0)
           (-90.0 90.0)
           (-90.0 90.0)
  end
  begin
     id 26 
     name rradius
     direction -1 -4.48988e-011 9.4797e-027   
     length 3.40144   
     axis 180 30 90   XYZ
    dof rx
    limits (-10.0 170.0)
  end
  begin
     id 27 
     name rwrist
     direction -1 -4.48897e-011 1.82366e-026   
     length 1.70072   
     axis -1.15222e-014 -90 -90   XYZ
    dof ry
    limits (-180.0 0.0)
  end
  begin
     id 28
     name rhand
     direction -1 -4.48965e-011 3.64815e-026   
     length 0.742821   
     axis -2.32787e-014 -90 -90   XYZ
    dof rx rz
    limits (-90.0 90.0)
           (-45.0 45.0)
  end
  begin
     id 29
     name rfingers
     direction -1 -4.49016e-011 7.29754e-026   
     length 0.598881   
     axis -4.6558e-014 -90 -90   XYZ
    dof rx
    limits (0.0 90.0)
  end
  begin
     id 30
     name rthumb
     direction -0.707107 -6.3488e-011 0.707107   
     length 0.859877   
     axis -90 -45 -3.78391e-014   XYZ
    dof rx rz
    limits (-45.0 45.0)
           (-45.0 45.0)
  end
:hierarchy
  begin
    root lhipjoint rhipjoint lowerback
    lhipjoint lfemur
    lfemur ltibia
    ltibia lfoot
    lfoot ltoes
    rhipjoint rfemur
    rfemur rtibia
    rtibia rfoot
    rfoot rtoes
    lowerback upperback
    upperback thorax
    thorax lowerneck lclavicle rclavicle
    lowerneck upperneck
    upperneck head
    lclavicle lhumerus
    lhumerus lradius
    lradius lwrist
    lwrist lhand lthumb
    lhand lfingers
    rclavicle rhumerus
    rhumerus rradius
    rradius rwrist
    rwrist rhand rthumb
    rhand rfingers
  end

#!OML:ASF F:\Work\Patient Classification 1\justin\Session 1\justin.ASF
:FULLY-SPECIFIED
:DEGREES
1465
root 0.10699 18.2439 -4.49873 -3.12024 -2.53347 -1.92288
lowerback 5.38535 -0.964463 -2.32333
upperback -1.58735 -1.28062 4.01804
thorax -4.53226 -0.511949 5.62244
lowerneck -16.2654 -6.71047 -17.7185
upperneck 24.5714 -7.69194 11.3102
head 11.9266 -3.83004 6.05094
rclavicle -1.63003e-014 2.8625e-014
rhumerus -47.9419 -7.88352 -81.398
rradius 31.1756
rwrist -18.1978
rhand -26.0569 3.04089
rfingers 7.12502
rthumb 0.490788 -26.9383
lclavicle -1.63003e-014 2.8625e-014
lhumerus -44.2663 17.3831 73.444
lradius 27.9803
lwrist 7.02023
lhand -21.1433 33.0202
lfingers 7.12502
lthumb 5.236 62.9356
rfemur 1.61642 -0.4589 22.7331
rtibia 19.5356
rfoot -14.2553 -1.86397
rtoes -5.82986
lfemur 7.63221 0.345511 -16.0471
ltibia 12.4036
lfoot -12.4058 1.59539
ltoes -18.0551
1466
root 0.109586 18.2419 -4.49268 -3.25271 -2.08361 -2.10751
lowerback 5.31492 -0.975689 -2.14902
upperback -1.54264 -1.28437 3.99991
thorax -4.44876 -0.52172 5.50024
lowerneck -16.3459 -6.69153 -17.6651
upperneck 24.674 -7.68523 11.3585
head 11.9805 -3.81607 6.06613
rclavicle -2.48481e-016 1.59028e-014
rhumerus -47.8765 -7.83143 -81.5364
rradius 31.1603
rwrist -18.7627
rhand -25.9998 2.82071
rfingers 7.12502
rthumb 0.545957 -27.1583
lclavicle -2.48481e-016 1.59028e-014
lhumerus -44.2553 17.5561 73.4604
lradius 27.6728
lwrist 7.52326
lhand -21.2742 33.3895
lfingers 7.12502
lthumb 5.10957 63.3079
rfemur 1.9118 -0.63423 22.9443
rtibia 19.3417
rfoot -14.2234 -2.14555
rtoes -5.03128
lfemur 7.5905 0.152411 -15.8186
ltibia 12.6713
lfoot -12.5252 1.3071
ltoes -18.028
1467
root 0.114854 18.2393 -4.48994 -3.37609 -1.8264 -2.23044
lowerback 5.24252 -0.919635 -2.03559
upperback -1.47182 -1.20259 3.99831
thorax -4.34482 -0.487674 5.42253
lowerneck -16.3052 -6.68161 -17.7289
upperneck 24.5902 -7.67942 11.4551
head 11.946 -3.80728 6.11385
rclavicle -1.89342e-014 1.27222e-014
rhumerus -47.7052 -7.85995 -81.5617
rradius 31.0744
rwrist -18.9916
rhand -25.7637 2.83361
rfingers 7.12502
rthumb 0.773935 -27.1447
lclavicle -1.89342e-014 1.27222e-014
lhumerus -44.1387 17.8263 73.5471
lradius 27.3067
lwrist 7.54621
lhand -21.0074 34.1869
lfingers 7.12502
lthumb 5.36722 64.0989
rfemur 2.12023 -0.728898 23.0727
rtibia 19.1971
rfoot -14.1065 -2.37481
rtoes -5.15696
lfemur 7.54137 0.0449299 -15.6857
ltibia 12.9917
lfoot -12.625 1.2477
ltoes -18.0135
1468
root 0.126051 18.2412 -4.49291 -3.40467 -2.19222 -2.28619
lowerback 5.2449 -0.660424 -1.92244
upperback -1.46076 -0.848155 3.99025
thorax -4.37456 -0.313674 5.3188
lowerneck -16.4907 -6.70858 -17.715
upperneck 24.7003 -7.68333 11.4173
head 12.025 -3.80844 6.09844
rclavicle 5.86415e-015 -1.03368e-014
rhumerus -47.6513 -7.60193 -81.7588
rradius 31.2437
rwrist -19.4521
rhand -25.4199 4.00146
rfingers 7.12502
rthumb 1.10598 -25.9754
lclavicle 5.86415e-015 -1.03368e-014
lhumerus -44.0975 18.2067 73.6031
lradius 27.1548
lwrist 7.09698
lhand -20.8599 33.2821
lfingers 7.12502
lthumb 5.50962 63.1905
rfemur 2.10199 -0.565145 23.07
rtibia 19.1546
rfoot -13.9665 -2.22789
rtoes -5.84282
lfemur 7.45366 0.184695 -15.7118
ltibia 13.2849
lfoot -12.7041 1.64097
ltoes -17.9132
1469
root 0.141642 18.2445 -4.50236 -3.28443 -2.80754 -2.35521
lowerback 5.26334 -0.331901 -1.7143
upperback -1.57755 -0.392081 3.96289
thorax -4.55645 -0.0869605 5.1336
lowerneck -16.6854 -6.66969 -17.6941
upperneck 25.0206 -7.62793 11.4453
head 12.1797 -3.77976 6.12807
rclavicle -7.10655e-015 3.18055e-015
rhumerus -47.8311 -7.04804 -82.18
rradius 31.6674
rwrist -20.388
rhand -25.1202 6.51686
rfingers 7.12502
rthumb 1.39549 -23.4583
lclavicle -7.10655e-015 3.18055e-015
lhumerus -44.3462 18.1778 73.7973
lradius 27.3162
lwrist 7.15649
lhand -20.8847 31.5768
lfingers 7.12502
lthumb 5.48566 61.4858
rfemur 1.89007 -0.294944 23.036
rtibia 19.1773
rfoot -13.8957 -1.84497
rtoes -5.29183
lfemur 7.25629 0.400697 -15.7798
ltibia 13.4867
lfoot -12.762 2.13378
ltoes -18.0442
1470
root 0.154045 18.2444 -4.50822 -3.1909 -2.7792 -2.34462
lowerback 5.27541 -0.24042 -1.63877
upperback -1.71101 -0.262048 3.93539
thorax -4.71628 -0.0195682 5.05228
lowerneck -16.8158 -6.59547 -17.7217
upperneck 25.2859 -7.50813 11.453
head 12.2908 -3.73009 6.16767
rclavicle 9.24349e-015 -3.81667e-014
rhumerus -48.0394 -6.27331 -82.6923
rradius 32.2133
rwrist -21.2472
rhand -25.2352 7.33074
rfingers 7.12502
rthumb 1.28445 -22.6451
lclavicle 9.24349e-015 -3.81667e-014
lhumerus -44.7454 18.0423 74.0806
lradius 27.5985
lwrist 7.55827
lhand -20.4956 30.4474
lfingers 7.12502
lthumb 5.86131 60.3463
rfemur 1.76797 -0.370513 22.9321
rtibia 19.2163
rfoot -13.9127 -1.706
rtoes -4.77475
lfemur 7.03189 0.291492 -15.8866
ltibia 13.6647
lfoot -12.8147 2.24636
ltoes -18.0462
1471
root 0.158526 18.2458 -4.51217 -3.17541 -2.14845 -2.28472
lowerback 5.34885 -0.355075 -1.70882
upperback -1.79062 -0.419169 3.91571
thorax -4.82533 -0.0924522 5.08878
lowerneck -16.97 -6.58025 -17.7974
upperneck 25.3696 -7.43784 11.4522
head 12.3467 -3.7032 6.19507
rclavicle -1.3418e-014 3.97569e-015
rhumerus -48.1116 -5.37855 -83.2438
rradius 32.7584
rwrist -21.7043
rhand -25.7595 6.21593
rfingers 7.12502
rthumb 0.778009 -23.7624
lclavicle -1.3418e-014 3.97569e-015
lhumerus -44.9133 18.1745 74.3139
lradius 27.6881
lwrist 7.68129
lhand -20.1697 29.92
lfingers 7.12502
lthumb 6.17601 59.81
rfemur 1.7687 -0.785793 22.822
rtibia 19.2285
rfoot -13.9527 -1.85956
rtoes -4.95277
lfemur 6.82504 0.0521552 -15.9353
ltibia 13.8153
lfoot -12.848 1.84551
ltoes -17.8741
1472
root 0.155797 18.2488 -4.5181 -3.10775 -1.40439 -2.32984
lowerback 5.3862 -0.495363 -1.7276
upperback -1.80658 -0.607767 3.91437
thorax -4.84403 -0.184999 5.11663
lowerneck -17.2469 -6.63471 -17.875
upperneck 25.3136 -7.46333 11.5516
head 12.3941 -3.70047 6.23963
rclavicle -2.48481e-015 -1.59028e-014
rhumerus -47.9138 -4.99262 -83.3672
rradius 32.7869
rwrist -20.6565
rhand -25.4047 5.8669
rfingers 7.12502
rthumb 1.12074 -24.1099
lclavicle -2.48481e-015 -1.59028e-014
lhumerus -44.7168 18.552 74.4266
lradius 27.3426
lwrist 7.26172
lhand -19.8412 31.6023
lfingers 7.12502
lthumb 6.49308 61.4827
rfemur 1.80518 -1.10937 22.9043
rtibia 19.1328
rfoot -13.9914 -2.26793
rtoes -5.06828
lfemur 6.55108 -0.100484 -15.793
ltibia 13.9215
lfoot -12.7984 1.23097
ltoes -17.6407
1473
root 0.157824 18.2477 -4.51328 -3.1421 -0.960115 -2.41785
lowerback 5.30942 -0.51485 -1.62202
upperback -1.63553 -0.631148 3.89395
thorax -4.61998 -0.207245 5.03143
lowerneck -17.6669 -6.73811 -17.8033
upperneck 25.0875 -7.54236 11.5761
head 12.4021 -3.70698 6.20948
rclavicle 1.60022e-014 1.82882e-014
rhumerus -47.3762 -4.7754 -83.5147
rradius 32.6838
rwrist -19.9699
rhand -25.2724 5.35757
rfingers 7.12502
rthumb 1.2485 -24.6185
lclavicle 1.60022e-014 1.82882e-014
lhumerus -44.3696 18.8247 74.674
lradius 27.1421
lwrist 6.94593
lhand -19.2698 33.2202
lfingers 7.12502
lthumb 7.04471 63.083
rfemur 2.03597 -1.21774 23.0319
rtibia 18.9273
rfoot -14.0094 -2.60779
rtoes -4.95744
lfemur 6.44574 -0.288526 -15.6703
ltibia 14.056
lfoot -12.8157 0.939574
ltoes -17.4021
1474
root 0.165062 18.2459 -4.49846 -3.32038 -0.729521 -2.54374
lowerback 5.18887 -0.467473 -1.42723
upperback -1.3832 -0.561238 3.87872
thorax -4.29656 -0.187982 4.89028
lowerneck -17.9582 -6.79625 -17.6065
upperneck 24.7437 -7.57494 11.4792
head 12.3169 -3.69616 6.11246
rclavicle -1.54058e-015 -2.06736e-014
rhumerus -46.9843 -4.45083 -83.7123
rradius 32.8371
rwrist -19.4061
rhand -25.2477 4.46464
rfingers 7.12502
rthumb 1.27232 -25.5113
lclavicle -1.54058e-015 -2.06736e-014
lhumerus -44.1742 18.6747 75.2381
lradius 27.5457
lwrist 7.21278
lhand -18.8652 32.315
lfingers 7.12502
lthumb 7.43524 62.1643
rfemur 2.41092 -1.24396 23.1792
rtibia 18.7017
rfoot -13.9955 -2.83985
rtoes -5.03413
lfemur 6.57369 -0.49272 -15.5554
ltibia 14.2001
lfoot -12.9255 0.874421
ltoes -17.322
1475
root 0.168313 18.2464 -4.48989 -3.40084 -0.38606 -2.64017
lowerback 5.04111 -0.490479 -1.31541
upperback -1.27852 -0.588377 3.86654
thorax -4.10217 -0.209537 4.81095
lowerneck -17.9879 -6.76835 -17.5172
upperneck 24.5016 -7.5423 11.4987
head 12.2178 -3.66388 6.10013
rclavicle 4.57205e-015 -2.46493e-014
rhumerus -46.9371 -4.00307 -83.9242
rradius 33.0948
rwrist -18.682
rhand -25.2964 4.10274
rfingers 7.12502
rthumb 1.22527 -25.8735
lclavicle 4.57205e-015 -2.46493e-014
lhumerus -44.1539 18.4314 75.7828
lradius 27.9915
lwrist 7.52114
lhand -18.6359 31.5191
lfingers 7.12502
lthumb 7.65659 61.3605
rfemur 2.65823 -1.26509 23.3231
rtibia 18.4639
rfoot -13.9591 -3.17676
rtoes -5.26558
lfemur 6.58998 -0.648179 -15.4288
ltibia 14.3015
lfoot -12.9524 0.662533
ltoes -17.159
1476
root 0.171404 18.2465 -4.48742 -3.39734 -0.0307136 -2.63595
lowerback 4.92233 -0.509946 -1.28651
upperback -1.20328 -0.616991 3.81781
thorax -3.95457 -0.228744 4.74168
lowerneck -18.2582 -6.79885 -17.5948
upperneck 24.5162 -7.5699 11.7001
head 12.2957 -3.6519 6.18899
rclavicle -1.98785e-016 1.90833e-014
rhumerus -46.8324 -3.66848 -84.0751
rradius 33.2778
rwrist -17.759
rhand -25.3672 3.99253
rfingers 7.12502
rthumb 1.15695 -25.9841
lclavicle -1.98785e-016 1.90833e-014
lhumerus -43.9608 18.3555 76.2294
lradius 28.0621
lwrist 7.79554
lhand -18.6671 31.3551
lfingers 7.12502
lthumb 7.62644 61.1976
rfemur 2.8107 -1.31762 23.3366
rtibia 18.1947
rfoot -13.8891 -3.45539
rtoes -6.26587
lfemur 6.48344 -0.786701 -15.4234
ltibia 14.4121
lfoot -12.9464 0.50381
ltoes -17.1574
1477
root 0.174753 18.2461 -4.48482 -3.46614 0.333646 -2.6685
lowerback 4.90956 -0.508197 -1.20338
upperback -1.03238 -0.615447 3.76723
thorax -3.77096 -0.235932 4.63761
lowerneck -18.7316 -6.90401 -17.7143
upperneck 24.5466 -7.67922 11.9845
head 12.4425 -3.66448 6.3041
rclavicle -6.21202e-015 5.24792e-014
rhumerus -46.5334 -3.47096 -84.1694
rradius 33.3247
rwrist -16.5146
rhand -25.2076 3.57255
rfingers 7.12502
rthumb 1.31108 -26.4032
lclavicle -6.21202e-015 5.24792e-014
lhumerus -43.605 18.2831 76.7188
lradius 28.1689
lwrist 8.00015
lhand -18.7043 31.3697
lfingers 7.12502
lthumb 7.59056 61.2135
rfemur 3.02818 -1.4191 23.3824
rtibia 17.9769
rfoot -13.8331 -3.72933
rtoes -9.14082
lfemur 6.44807 -0.908719 -15.3714
ltibia 14.5312
lfoot -13.0058 0.284606
ltoes -17.2428
1478
root 0.174048 18.2463 -4.48333 -3.54167 0.725931 -2.77086
lowerback 4.88068 -0.534866 -1.1066
upperback -0.892687 -0.649445 3.74533
thorax -3.60768 -0.259727 4.5591
lowerneck -18.8825 -6.94795 -17.795
upperneck 24.4379 -7.74703 12.2175
head 12.4574 -3.66759 6.39535
rclavicle 0 4.13472e-014
rhumerus -46.2148 -3.23123 -84.2816
rradius 33.0642
rwrist -14.9795
rhand -24.8944 3.37521
rfingers 7.12502
rthumb 1.61354 -26.5984
lclavicle 0 4.13472e-014
lhumerus -43.4895 17.9442 77.3106
lradius 28.5741
lwrist 8.59648
lhand -19.5287 34.2566
lfingers 7.12502
lthumb 6.79476 64.1276
rfemur 3.21284 -1.47223 23.5492
rtibia 17.8306
rfoot -13.8087 -4.13018
rtoes -6.86031
lfemur 6.39879 -0.985127 -15.2025
ltibia 14.6124
lfoot -13.0345 -0.078745
ltoes -17.2494
